<svg fill="none" height="261" viewBox="0 0 607 261" width="607" xmlns="http://www.w3.org/2000/svg" xmlns:xlink="http://www.w3.org/1999/xlink"><filter id="a" color-interpolation-filters="sRGB" filterUnits="userSpaceOnUse" height="72.0351" width="124.769" x="304.567" y="116"><feFlood flood-opacity="0" result="BackgroundImageFix"/><feBlend in="SourceGraphic" in2="BackgroundImageFix" mode="normal" result="shape"/><feColorMatrix in="SourceAlpha" result="hardAlpha" type="matrix" values="0 0 0 0 0 0 0 0 0 0 0 0 0 0 0 0 0 0 127 0"/><feOffset dy="-.766188"/><feComposite in2="hardAlpha" k2="-1" k3="1" operator="arithmetic"/><feColorMatrix type="matrix" values="0 0 0 0 1 0 0 0 0 1 0 0 0 0 1 0 0 0 0.25 0"/><feBlend in2="shape" mode="normal" result="effect1_innerShadow_4095_42119"/></filter><filter id="b" color-interpolation-filters="sRGB" filterUnits="userSpaceOnUse" height="108" width="62" x="305" y="152"><feFlood flood-opacity="0" result="BackgroundImageFix"/><feBlend in="SourceGraphic" in2="BackgroundImageFix" mode="normal" result="shape"/><feColorMatrix in="SourceAlpha" result="hardAlpha" type="matrix" values="0 0 0 0 0 0 0 0 0 0 0 0 0 0 0 0 0 0 127 0"/><feOffset dx=".383094" dy="-1.14928"/><feComposite in2="hardAlpha" k2="-1" k3="1" operator="arithmetic"/><feColorMatrix type="matrix" values="0 0 0 0 1 0 0 0 0 1 0 0 0 0 1 0 0 0 0.46 0"/><feBlend in2="shape" mode="normal" result="effect1_innerShadow_4095_42119"/></filter><linearGradient id="c" gradientUnits="userSpaceOnUse" x1="366.952" x2="366.952" y1="116" y2="188.035"><stop offset="0" stop-color="#51cfd6"/><stop offset="1" stop-color="#bcf4f7"/></linearGradient><linearGradient id="d" gradientUnits="userSpaceOnUse" x1="398.193" x2="398.193" y1="152" y2="260.053"><stop offset="0" stop-color="#44c7cf"/><stop offset="1" stop-color="#54c5ca"/></linearGradient><linearGradient id="e" gradientUnits="userSpaceOnUse" x1="336" x2="336" y1="152" y2="260"><stop offset="0" stop-color="#44c7cf"/><stop offset="1" stop-color="#8df1f5"/></linearGradient><g filter="url(#a)"><path d="m304.567 152.018 62.385-36.018 62.384 36.018-62.384 36.017z" fill="url(#c)"/></g><path d="m429.385 224.035-62.384 36.018v-72.035l62.384-36.018z" fill="url(#d)"/><g filter="url(#b)"><path d="m305 224v-72l62 36v72z" fill="url(#e)"/></g><g fill="#fff"><path d="m113.47.139465h32.374v105.923535h-20.29v-53.7075c0-1.7903.1-9.8465.299-24.1686l.149-11.7859c-1.79 6.5643-5.42 18.5491-10.891 35.9545l-17.0072 53.7075h-18.201l-17.3059-53.7075c-1.293-4.3762-2.7849-8.9513-4.4757-13.7254-2.1881-6.5643-4.4756-13.8248-6.8627-21.7815.2984 11.7362.4476 23.5718.4476 35.5069v53.7075h-19.9913v-105.923535h32.8215l13.8746 43.115535c4.5751 14.2226 8.1556 26.2572 10.7416 36.1036 2.2875-9.2497 5.8183-21.2842 10.5924-36.1036z"/><path d="m217.027 81.5965 10.891 11.935c-5.272 5.3708-10.593 9.1995-15.964 11.4875-5.37 2.288-11.388 3.431-18.051 3.431-12.234 0-21.981-3.63-29.241-10.8904-7.161-7.2605-10.742-17.0075-10.742-29.2409 0-12.0346 3.481-21.881 10.443-29.5394 6.962-7.6583 16.262-11.4875 27.899-11.4875 11.338 0 20.09 3.3319 26.257 9.9956 6.266 6.6638 9.399 16.0129 9.399 28.0475 0 2.0886-.1 4.6248-.299 7.6086h-54.752c.895 6.067 3.133 10.7913 6.714 14.1729 3.68 3.2822 8.603 4.9232 14.769 4.9232 4.277 0 7.907-.7459 10.891-2.2378 3.183-1.4919 7.111-4.227 11.786-8.2053zm-43.712-22.5275h35.656c-.398-5.1719-2.139-9.2-5.222-12.0843-2.984-2.9838-7.012-4.4757-12.084-4.4757-9.847 0-15.963 5.52-18.35 16.56z"/><path d="m293.195 81.5965 10.89 11.935c-5.271 5.3708-10.592 9.1995-15.963 11.4875s-11.388 3.431-18.052 3.431c-12.233 0-21.98-3.63-29.241-10.8904-7.161-7.2605-10.741-17.0075-10.741-29.2409 0-12.0346 3.481-21.881 10.443-29.5394 6.962-7.6583 16.262-11.4875 27.898-11.4875 11.339 0 20.091 3.3319 26.258 9.9956 6.265 6.6638 9.398 16.0129 9.398 28.0475 0 2.0886-.099 4.6248-.298 7.6086h-54.752c.895 6.067 3.133 10.7913 6.713 14.1729 3.68 3.2822 8.604 4.9232 14.77 4.9232 4.277 0 7.907-.7459 10.891-2.2378 3.182-1.4919 7.111-4.227 11.786-8.2053zm-43.713-22.5275h35.657c-.398-5.1719-2.139-9.2-5.222-12.0843-2.984-2.9838-7.012-4.4757-12.084-4.4757-9.847 0-15.964 5.52-18.351 16.56z"/><path d="m353.275 89.6526 2.237 15.3664c-5.569 1.89-11.288 2.835-17.156 2.835-7.46 0-12.93-1.741-16.411-5.222-3.481-3.5805-5.222-9.001-5.222-16.2615v-41.7728h-13.576v-14.7697h13.576v-23.5718h19.395v23.5718h18.201v14.7697h-18.201v39.3858c0 2.5859.597 4.4259 1.79 5.5199 1.194.9946 3.133 1.4919 5.818 1.4919 2.686 0 5.869-.4475 9.549-1.3427z"/><path d="m448.822 38.6301c7.459 7.4595 11.189 17.2064 11.189 29.241 0 12.0345-3.73 21.8313-11.189 29.3901-7.36 7.4598-16.809 11.1888-28.346 11.1888-11.637 0-21.185-3.729-28.644-11.1888-7.36-7.5588-11.04-17.3556-11.04-29.3901 0-12.0346 3.68-21.7815 11.04-29.241 7.459-7.5589 17.007-11.3383 28.644-11.3383 11.537 0 20.986 3.7794 28.346 11.3383zm-48.337 29.241c0 7.36 1.79 13.2281 5.37 17.6042 3.68 4.3762 8.554 6.5643 14.621 6.5643 5.967 0 10.741-2.1881 14.322-6.5643 3.68-4.3761 5.52-10.2442 5.52-17.6042 0-7.2605-1.84-13.0789-5.52-17.4551-3.581-4.4756-8.355-6.7135-14.322-6.7135-6.067 0-10.941 2.2379-14.621 6.7135-3.58 4.3762-5.37 10.1946-5.37 17.4551z"/><path d="m513.387 29.828h19.394v76.235h-17.753v-8.0558c-4.277 6.9618-11.737 10.4428-22.379 10.4428-8.852 0-15.565-2.138-20.14-6.415-4.575-4.2765-6.863-10.1943-6.863-17.7532v-54.4538h19.395v49.083c0 3.9784 1.094 7.1114 3.282 9.3989 2.188 2.1881 5.321 3.2822 9.399 3.2822 4.873 0 8.702-1.3427 11.487-4.0281 2.785-2.7849 4.178-6.7135 4.178-11.7859z"/><path d="m591.629 31.0215-3.431 17.0075c-3.68-.9946-6.913-1.4919-9.698-1.4919-5.171 0-9.249 1.9395-12.233 5.8184s-4.476 9.2497-4.476 16.1123v37.5952h-19.394v-76.235h18.052v11.1891c3.978-8.1556 10.343-12.2334 19.096-12.2334 3.282 0 7.31.7459 12.084 2.2378z"/><path d="m77.2752 132.069c6.3654 6.067 9.5481 14.123 9.5481 24.169 0 10.045-3.1827 18.101-9.5481 24.168-6.2659 6.067-14.72 9.101-25.3621 9.101h-30.1361v39.236h-20.886375v-105.924h51.022475c10.6421 0 19.0962 3.084 25.3621 9.25zm-29.0918 8.056h-26.4064v32.076h26.4064c5.5697 0 9.9459-1.393 13.1286-4.177 3.1827-2.785 4.774-6.714 4.774-11.786 0-5.073-1.5913-9.001-4.774-11.786-3.0832-2.885-7.4594-4.327-13.1286-4.327z"/><path d="m112.43 122.819v105.924h-19.3944v-105.924z"/><path d="m188.822 177.273v51.47h-17.455v-7.907c-5.073 6.962-13.278 10.443-24.617 10.443-8.155 0-14.769-1.889-19.842-5.669-4.973-3.779-7.459-9.15-7.459-16.112 0-7.658 2.785-13.576 8.355-17.753 5.569-4.178 13.775-7.211 24.616-9.101l17.902-3.282v-1.79c0-3.68-1.293-6.515-3.879-8.504-2.486-2.089-5.967-3.133-10.443-3.133-4.873 0-8.852.945-11.935 2.834-3.58 2.189-7.509 5.371-11.786 9.549l-12.233-11.19c9.647-11.437 21.533-17.156 35.656-17.156 10.542 0 18.698 2.436 24.467 7.31 5.768 4.873 8.653 11.537 8.653 19.991zm-18.5 20.439v-4.476l-12.83 2.686c-6.863 1.492-11.786 3.133-14.77 4.923-2.884 1.691-4.326 4.128-4.326 7.31 0 2.387.994 4.277 2.984 5.669 2.088 1.293 4.973 1.94 8.653 1.94 5.967 0 10.841-1.542 14.62-4.625 3.78-3.083 5.669-7.559 5.669-13.427z"/><path d="m241.154 212.333 2.238 15.366c-5.57 1.89-11.289 2.835-17.157 2.835-7.459 0-12.929-1.741-16.41-5.222-3.481-3.581-5.222-9.001-5.222-16.262v-41.772h-13.576v-14.77h13.576v-23.572h19.395v23.572h18.201v14.77h-18.201v39.385c0 2.586.596 4.426 1.79 5.52 1.193.995 3.133 1.492 5.818 1.492 2.686 0 5.868-.447 9.548-1.342z"/><path d="m273.347 145.944v6.564h17.008v14.77h-17.008v61.465h-19.394v-61.465h-13.129v-14.77h13.129v-7.609c0-16.51 8.255-24.765 24.765-24.765 5.47 0 10.891.895 16.262 2.685l-3.432 14.472c-3.779-.796-6.763-1.194-8.951-1.194-3.282 0-5.669.746-7.161 2.238-1.392 1.492-2.089 4.028-2.089 7.609z"/><path d="m495.127 153.701-3.432 17.008c-3.68-.995-6.912-1.492-9.697-1.492-5.172 0-9.249 1.939-12.233 5.818s-4.476 9.25-4.476 16.113v37.595h-19.394v-76.235h18.051v11.189c3.979-8.156 10.344-12.233 19.097-12.233 3.282 0 7.31.746 12.084 2.237z"/><path d="m606.792 175.483v53.26h-19.394v-47.442c0-9.747-4.028-14.62-12.085-14.62-4.177 0-7.459 1.392-9.846 4.177s-3.581 6.465-3.581 11.04v46.845h-19.394v-47.442c0-9.747-4.028-14.62-12.084-14.62-4.178 0-7.46 1.392-9.847 4.177s-3.58 6.465-3.58 11.04v46.845h-19.395v-76.235h18.052v8.504c4.476-7.36 11.736-11.04 21.781-11.04 9.747 0 16.809 3.729 21.185 11.189 5.172-7.46 12.781-11.189 22.826-11.189 7.957 0 14.173 2.287 18.649 6.862 4.475 4.575 6.713 10.792 6.713 18.649z"/></g></svg>